%TF.GenerationSoftware,KiCad,Pcbnew,9.0.0*%
%TF.CreationDate,2025-02-28T17:36:00-08:00*%
%TF.ProjectId,3pdt board,33706474-2062-46f6-9172-642e6b696361,rev?*%
%TF.SameCoordinates,Original*%
%TF.FileFunction,Legend,Top*%
%TF.FilePolarity,Positive*%
%FSLAX46Y46*%
G04 Gerber Fmt 4.6, Leading zero omitted, Abs format (unit mm)*
G04 Created by KiCad (PCBNEW 9.0.0) date 2025-02-28 17:36:00*
%MOMM*%
%LPD*%
G01*
G04 APERTURE LIST*
%ADD10C,0.100000*%
G04 APERTURE END LIST*
D10*
X135628169Y-81858800D02*
X135742455Y-81896895D01*
X135742455Y-81896895D02*
X135932931Y-81896895D01*
X135932931Y-81896895D02*
X136009122Y-81858800D01*
X136009122Y-81858800D02*
X136047217Y-81820704D01*
X136047217Y-81820704D02*
X136085312Y-81744514D01*
X136085312Y-81744514D02*
X136085312Y-81668323D01*
X136085312Y-81668323D02*
X136047217Y-81592133D01*
X136047217Y-81592133D02*
X136009122Y-81554038D01*
X136009122Y-81554038D02*
X135932931Y-81515942D01*
X135932931Y-81515942D02*
X135780550Y-81477847D01*
X135780550Y-81477847D02*
X135704360Y-81439752D01*
X135704360Y-81439752D02*
X135666265Y-81401657D01*
X135666265Y-81401657D02*
X135628169Y-81325466D01*
X135628169Y-81325466D02*
X135628169Y-81249276D01*
X135628169Y-81249276D02*
X135666265Y-81173085D01*
X135666265Y-81173085D02*
X135704360Y-81134990D01*
X135704360Y-81134990D02*
X135780550Y-81096895D01*
X135780550Y-81096895D02*
X135971027Y-81096895D01*
X135971027Y-81096895D02*
X136085312Y-81134990D01*
X136580551Y-81096895D02*
X136732932Y-81096895D01*
X136732932Y-81096895D02*
X136809122Y-81134990D01*
X136809122Y-81134990D02*
X136885313Y-81211180D01*
X136885313Y-81211180D02*
X136923408Y-81363561D01*
X136923408Y-81363561D02*
X136923408Y-81630228D01*
X136923408Y-81630228D02*
X136885313Y-81782609D01*
X136885313Y-81782609D02*
X136809122Y-81858800D01*
X136809122Y-81858800D02*
X136732932Y-81896895D01*
X136732932Y-81896895D02*
X136580551Y-81896895D01*
X136580551Y-81896895D02*
X136504360Y-81858800D01*
X136504360Y-81858800D02*
X136428170Y-81782609D01*
X136428170Y-81782609D02*
X136390074Y-81630228D01*
X136390074Y-81630228D02*
X136390074Y-81363561D01*
X136390074Y-81363561D02*
X136428170Y-81211180D01*
X136428170Y-81211180D02*
X136504360Y-81134990D01*
X136504360Y-81134990D02*
X136580551Y-81096895D01*
X137647217Y-81896895D02*
X137266265Y-81896895D01*
X137266265Y-81896895D02*
X137266265Y-81096895D01*
X137913884Y-81896895D02*
X137913884Y-81096895D01*
X137913884Y-81096895D02*
X138104360Y-81096895D01*
X138104360Y-81096895D02*
X138218646Y-81134990D01*
X138218646Y-81134990D02*
X138294836Y-81211180D01*
X138294836Y-81211180D02*
X138332931Y-81287371D01*
X138332931Y-81287371D02*
X138371027Y-81439752D01*
X138371027Y-81439752D02*
X138371027Y-81554038D01*
X138371027Y-81554038D02*
X138332931Y-81706419D01*
X138332931Y-81706419D02*
X138294836Y-81782609D01*
X138294836Y-81782609D02*
X138218646Y-81858800D01*
X138218646Y-81858800D02*
X138104360Y-81896895D01*
X138104360Y-81896895D02*
X137913884Y-81896895D01*
X138713884Y-81477847D02*
X138980550Y-81477847D01*
X139094836Y-81896895D02*
X138713884Y-81896895D01*
X138713884Y-81896895D02*
X138713884Y-81096895D01*
X138713884Y-81096895D02*
X139094836Y-81096895D01*
X139894837Y-81896895D02*
X139628170Y-81515942D01*
X139437694Y-81896895D02*
X139437694Y-81096895D01*
X139437694Y-81096895D02*
X139742456Y-81096895D01*
X139742456Y-81096895D02*
X139818646Y-81134990D01*
X139818646Y-81134990D02*
X139856741Y-81173085D01*
X139856741Y-81173085D02*
X139894837Y-81249276D01*
X139894837Y-81249276D02*
X139894837Y-81363561D01*
X139894837Y-81363561D02*
X139856741Y-81439752D01*
X139856741Y-81439752D02*
X139818646Y-81477847D01*
X139818646Y-81477847D02*
X139742456Y-81515942D01*
X139742456Y-81515942D02*
X139437694Y-81515942D01*
X140847218Y-81896895D02*
X140847218Y-81096895D01*
X140847218Y-81477847D02*
X141304361Y-81477847D01*
X141304361Y-81896895D02*
X141304361Y-81096895D01*
X141685313Y-81477847D02*
X141951979Y-81477847D01*
X142066265Y-81896895D02*
X141685313Y-81896895D01*
X141685313Y-81896895D02*
X141685313Y-81096895D01*
X141685313Y-81096895D02*
X142066265Y-81096895D01*
X142866266Y-81896895D02*
X142599599Y-81515942D01*
X142409123Y-81896895D02*
X142409123Y-81096895D01*
X142409123Y-81096895D02*
X142713885Y-81096895D01*
X142713885Y-81096895D02*
X142790075Y-81134990D01*
X142790075Y-81134990D02*
X142828170Y-81173085D01*
X142828170Y-81173085D02*
X142866266Y-81249276D01*
X142866266Y-81249276D02*
X142866266Y-81363561D01*
X142866266Y-81363561D02*
X142828170Y-81439752D01*
X142828170Y-81439752D02*
X142790075Y-81477847D01*
X142790075Y-81477847D02*
X142713885Y-81515942D01*
X142713885Y-81515942D02*
X142409123Y-81515942D01*
X143209123Y-81477847D02*
X143475789Y-81477847D01*
X143590075Y-81896895D02*
X143209123Y-81896895D01*
X143209123Y-81896895D02*
X143209123Y-81096895D01*
X143209123Y-81096895D02*
X143590075Y-81096895D01*
X135801979Y-76396895D02*
X136259122Y-76396895D01*
X136030550Y-77196895D02*
X136030550Y-76396895D01*
X136525789Y-77196895D02*
X136525789Y-76396895D01*
X136525789Y-76777847D02*
X136982932Y-76777847D01*
X136982932Y-77196895D02*
X136982932Y-76396895D01*
X137363884Y-77196895D02*
X137363884Y-76396895D01*
X137706740Y-77158800D02*
X137821026Y-77196895D01*
X137821026Y-77196895D02*
X138011502Y-77196895D01*
X138011502Y-77196895D02*
X138087693Y-77158800D01*
X138087693Y-77158800D02*
X138125788Y-77120704D01*
X138125788Y-77120704D02*
X138163883Y-77044514D01*
X138163883Y-77044514D02*
X138163883Y-76968323D01*
X138163883Y-76968323D02*
X138125788Y-76892133D01*
X138125788Y-76892133D02*
X138087693Y-76854038D01*
X138087693Y-76854038D02*
X138011502Y-76815942D01*
X138011502Y-76815942D02*
X137859121Y-76777847D01*
X137859121Y-76777847D02*
X137782931Y-76739752D01*
X137782931Y-76739752D02*
X137744836Y-76701657D01*
X137744836Y-76701657D02*
X137706740Y-76625466D01*
X137706740Y-76625466D02*
X137706740Y-76549276D01*
X137706740Y-76549276D02*
X137744836Y-76473085D01*
X137744836Y-76473085D02*
X137782931Y-76434990D01*
X137782931Y-76434990D02*
X137859121Y-76396895D01*
X137859121Y-76396895D02*
X138049598Y-76396895D01*
X138049598Y-76396895D02*
X138163883Y-76434990D01*
X139078169Y-77158800D02*
X139192455Y-77196895D01*
X139192455Y-77196895D02*
X139382931Y-77196895D01*
X139382931Y-77196895D02*
X139459122Y-77158800D01*
X139459122Y-77158800D02*
X139497217Y-77120704D01*
X139497217Y-77120704D02*
X139535312Y-77044514D01*
X139535312Y-77044514D02*
X139535312Y-76968323D01*
X139535312Y-76968323D02*
X139497217Y-76892133D01*
X139497217Y-76892133D02*
X139459122Y-76854038D01*
X139459122Y-76854038D02*
X139382931Y-76815942D01*
X139382931Y-76815942D02*
X139230550Y-76777847D01*
X139230550Y-76777847D02*
X139154360Y-76739752D01*
X139154360Y-76739752D02*
X139116265Y-76701657D01*
X139116265Y-76701657D02*
X139078169Y-76625466D01*
X139078169Y-76625466D02*
X139078169Y-76549276D01*
X139078169Y-76549276D02*
X139116265Y-76473085D01*
X139116265Y-76473085D02*
X139154360Y-76434990D01*
X139154360Y-76434990D02*
X139230550Y-76396895D01*
X139230550Y-76396895D02*
X139421027Y-76396895D01*
X139421027Y-76396895D02*
X139535312Y-76434990D01*
X139878170Y-77196895D02*
X139878170Y-76396895D01*
X140259122Y-77196895D02*
X140259122Y-76396895D01*
X140259122Y-76396895D02*
X140449598Y-76396895D01*
X140449598Y-76396895D02*
X140563884Y-76434990D01*
X140563884Y-76434990D02*
X140640074Y-76511180D01*
X140640074Y-76511180D02*
X140678169Y-76587371D01*
X140678169Y-76587371D02*
X140716265Y-76739752D01*
X140716265Y-76739752D02*
X140716265Y-76854038D01*
X140716265Y-76854038D02*
X140678169Y-77006419D01*
X140678169Y-77006419D02*
X140640074Y-77082609D01*
X140640074Y-77082609D02*
X140563884Y-77158800D01*
X140563884Y-77158800D02*
X140449598Y-77196895D01*
X140449598Y-77196895D02*
X140259122Y-77196895D01*
X141059122Y-76777847D02*
X141325788Y-76777847D01*
X141440074Y-77196895D02*
X141059122Y-77196895D01*
X141059122Y-77196895D02*
X141059122Y-76396895D01*
X141059122Y-76396895D02*
X141440074Y-76396895D01*
X142392456Y-76396895D02*
X142392456Y-77044514D01*
X142392456Y-77044514D02*
X142430551Y-77120704D01*
X142430551Y-77120704D02*
X142468646Y-77158800D01*
X142468646Y-77158800D02*
X142544837Y-77196895D01*
X142544837Y-77196895D02*
X142697218Y-77196895D01*
X142697218Y-77196895D02*
X142773408Y-77158800D01*
X142773408Y-77158800D02*
X142811503Y-77120704D01*
X142811503Y-77120704D02*
X142849599Y-77044514D01*
X142849599Y-77044514D02*
X142849599Y-76396895D01*
X143230551Y-77196895D02*
X143230551Y-76396895D01*
X143230551Y-76396895D02*
X143535313Y-76396895D01*
X143535313Y-76396895D02*
X143611503Y-76434990D01*
X143611503Y-76434990D02*
X143649598Y-76473085D01*
X143649598Y-76473085D02*
X143687694Y-76549276D01*
X143687694Y-76549276D02*
X143687694Y-76663561D01*
X143687694Y-76663561D02*
X143649598Y-76739752D01*
X143649598Y-76739752D02*
X143611503Y-76777847D01*
X143611503Y-76777847D02*
X143535313Y-76815942D01*
X143535313Y-76815942D02*
X143230551Y-76815942D01*
X142610000Y-69554895D02*
X142762381Y-69554895D01*
X142762381Y-69554895D02*
X142838571Y-69592990D01*
X142838571Y-69592990D02*
X142914762Y-69669180D01*
X142914762Y-69669180D02*
X142952857Y-69821561D01*
X142952857Y-69821561D02*
X142952857Y-70088228D01*
X142952857Y-70088228D02*
X142914762Y-70240609D01*
X142914762Y-70240609D02*
X142838571Y-70316800D01*
X142838571Y-70316800D02*
X142762381Y-70354895D01*
X142762381Y-70354895D02*
X142610000Y-70354895D01*
X142610000Y-70354895D02*
X142533809Y-70316800D01*
X142533809Y-70316800D02*
X142457619Y-70240609D01*
X142457619Y-70240609D02*
X142419523Y-70088228D01*
X142419523Y-70088228D02*
X142419523Y-69821561D01*
X142419523Y-69821561D02*
X142457619Y-69669180D01*
X142457619Y-69669180D02*
X142533809Y-69592990D01*
X142533809Y-69592990D02*
X142610000Y-69554895D01*
X143295714Y-69554895D02*
X143295714Y-70202514D01*
X143295714Y-70202514D02*
X143333809Y-70278704D01*
X143333809Y-70278704D02*
X143371904Y-70316800D01*
X143371904Y-70316800D02*
X143448095Y-70354895D01*
X143448095Y-70354895D02*
X143600476Y-70354895D01*
X143600476Y-70354895D02*
X143676666Y-70316800D01*
X143676666Y-70316800D02*
X143714761Y-70278704D01*
X143714761Y-70278704D02*
X143752857Y-70202514D01*
X143752857Y-70202514D02*
X143752857Y-69554895D01*
X144019523Y-69554895D02*
X144476666Y-69554895D01*
X144248094Y-70354895D02*
X144248094Y-69554895D01*
X137815714Y-70354895D02*
X137434762Y-70354895D01*
X137434762Y-70354895D02*
X137434762Y-69554895D01*
X138082381Y-69935847D02*
X138349047Y-69935847D01*
X138463333Y-70354895D02*
X138082381Y-70354895D01*
X138082381Y-70354895D02*
X138082381Y-69554895D01*
X138082381Y-69554895D02*
X138463333Y-69554895D01*
X138806191Y-70354895D02*
X138806191Y-69554895D01*
X138806191Y-69554895D02*
X138996667Y-69554895D01*
X138996667Y-69554895D02*
X139110953Y-69592990D01*
X139110953Y-69592990D02*
X139187143Y-69669180D01*
X139187143Y-69669180D02*
X139225238Y-69745371D01*
X139225238Y-69745371D02*
X139263334Y-69897752D01*
X139263334Y-69897752D02*
X139263334Y-70012038D01*
X139263334Y-70012038D02*
X139225238Y-70164419D01*
X139225238Y-70164419D02*
X139187143Y-70240609D01*
X139187143Y-70240609D02*
X139110953Y-70316800D01*
X139110953Y-70316800D02*
X138996667Y-70354895D01*
X138996667Y-70354895D02*
X138806191Y-70354895D01*
X145645238Y-69554895D02*
X145645238Y-70126323D01*
X145645238Y-70126323D02*
X145607143Y-70240609D01*
X145607143Y-70240609D02*
X145530952Y-70316800D01*
X145530952Y-70316800D02*
X145416667Y-70354895D01*
X145416667Y-70354895D02*
X145340476Y-70354895D01*
X146178572Y-69554895D02*
X146330953Y-69554895D01*
X146330953Y-69554895D02*
X146407143Y-69592990D01*
X146407143Y-69592990D02*
X146483334Y-69669180D01*
X146483334Y-69669180D02*
X146521429Y-69821561D01*
X146521429Y-69821561D02*
X146521429Y-70088228D01*
X146521429Y-70088228D02*
X146483334Y-70240609D01*
X146483334Y-70240609D02*
X146407143Y-70316800D01*
X146407143Y-70316800D02*
X146330953Y-70354895D01*
X146330953Y-70354895D02*
X146178572Y-70354895D01*
X146178572Y-70354895D02*
X146102381Y-70316800D01*
X146102381Y-70316800D02*
X146026191Y-70240609D01*
X146026191Y-70240609D02*
X145988095Y-70088228D01*
X145988095Y-70088228D02*
X145988095Y-69821561D01*
X145988095Y-69821561D02*
X146026191Y-69669180D01*
X146026191Y-69669180D02*
X146102381Y-69592990D01*
X146102381Y-69592990D02*
X146178572Y-69554895D01*
X133173809Y-69554895D02*
X133173809Y-70126323D01*
X133173809Y-70126323D02*
X133135714Y-70240609D01*
X133135714Y-70240609D02*
X133059523Y-70316800D01*
X133059523Y-70316800D02*
X132945238Y-70354895D01*
X132945238Y-70354895D02*
X132869047Y-70354895D01*
X133554762Y-70354895D02*
X133554762Y-69554895D01*
X135370953Y-70354895D02*
X135370953Y-69554895D01*
X135751905Y-70354895D02*
X135751905Y-69554895D01*
X135751905Y-69554895D02*
X136209048Y-70354895D01*
X136209048Y-70354895D02*
X136209048Y-69554895D01*
X140260476Y-69592990D02*
X140184286Y-69554895D01*
X140184286Y-69554895D02*
X140070000Y-69554895D01*
X140070000Y-69554895D02*
X139955714Y-69592990D01*
X139955714Y-69592990D02*
X139879524Y-69669180D01*
X139879524Y-69669180D02*
X139841429Y-69745371D01*
X139841429Y-69745371D02*
X139803333Y-69897752D01*
X139803333Y-69897752D02*
X139803333Y-70012038D01*
X139803333Y-70012038D02*
X139841429Y-70164419D01*
X139841429Y-70164419D02*
X139879524Y-70240609D01*
X139879524Y-70240609D02*
X139955714Y-70316800D01*
X139955714Y-70316800D02*
X140070000Y-70354895D01*
X140070000Y-70354895D02*
X140146191Y-70354895D01*
X140146191Y-70354895D02*
X140260476Y-70316800D01*
X140260476Y-70316800D02*
X140298572Y-70278704D01*
X140298572Y-70278704D02*
X140298572Y-70012038D01*
X140298572Y-70012038D02*
X140146191Y-70012038D01*
X140641429Y-70354895D02*
X140641429Y-69554895D01*
X140641429Y-69554895D02*
X141098572Y-70354895D01*
X141098572Y-70354895D02*
X141098572Y-69554895D01*
X141479524Y-70354895D02*
X141479524Y-69554895D01*
X141479524Y-69554895D02*
X141670000Y-69554895D01*
X141670000Y-69554895D02*
X141784286Y-69592990D01*
X141784286Y-69592990D02*
X141860476Y-69669180D01*
X141860476Y-69669180D02*
X141898571Y-69745371D01*
X141898571Y-69745371D02*
X141936667Y-69897752D01*
X141936667Y-69897752D02*
X141936667Y-70012038D01*
X141936667Y-70012038D02*
X141898571Y-70164419D01*
X141898571Y-70164419D02*
X141860476Y-70240609D01*
X141860476Y-70240609D02*
X141784286Y-70316800D01*
X141784286Y-70316800D02*
X141670000Y-70354895D01*
X141670000Y-70354895D02*
X141479524Y-70354895D01*
M02*
