M48
; DRILL file {KiCad 9.0.0} date 2025-02-28T17:36:01-0800
; FORMAT={-:-/ absolute / inch / decimal}
; #@! TF.CreationDate,2025-02-28T17:36:01-08:00
; #@! TF.GenerationSoftware,Kicad,Pcbnew,9.0.0
; #@! TF.FileFunction,Plated,1,2,PTH
FMAT,2
INCH
; #@! TA.AperFunction,Plated,PTH,ComponentDrill
T1C0.0472
; #@! TA.AperFunction,Plated,PTH,ComponentDrill
T2C0.0492
%
G90
G05
T1
X5.2461Y-2.6846
X5.3461Y-2.6846
X5.4461Y-2.6846
X5.5461Y-2.6846
X5.6461Y-2.6846
X5.7461Y-2.6846
T2
G00X5.3219Y-2.9252
M15
G01X5.253Y-2.9252
M16
G05
G00X5.3219Y-3.1142
M15
G01X5.253Y-3.1142
M16
G05
G00X5.3219Y-3.3031
M15
G01X5.253Y-3.3031
M16
G05
G00X5.5305Y-2.9252
M15
G01X5.4616Y-2.9252
M16
G05
G00X5.5305Y-3.1142
M15
G01X5.4616Y-3.1142
M16
G05
G00X5.5305Y-3.3031
M15
G01X5.4616Y-3.3031
M16
G05
G00X5.7392Y-2.9252
M15
G01X5.6703Y-2.9252
M16
G05
G00X5.7392Y-3.1142
M15
G01X5.6703Y-3.1142
M16
G05
G00X5.7392Y-3.3031
M15
G01X5.6703Y-3.3031
M16
G05
M30
