%TF.GenerationSoftware,KiCad,Pcbnew,9.0.0*%
%TF.CreationDate,2025-02-28T17:36:00-08:00*%
%TF.ProjectId,3pdt board,33706474-2062-46f6-9172-642e6b696361,rev?*%
%TF.SameCoordinates,Original*%
%TF.FileFunction,Copper,L2,Bot*%
%TF.FilePolarity,Positive*%
%FSLAX46Y46*%
G04 Gerber Fmt 4.6, Leading zero omitted, Abs format (unit mm)*
G04 Created by KiCad (PCBNEW 9.0.0) date 2025-02-28 17:36:00*
%MOMM*%
%LPD*%
G01*
G04 APERTURE LIST*
%TA.AperFunction,ComponentPad*%
%ADD10O,4.000000X2.250000*%
%TD*%
%TA.AperFunction,ComponentPad*%
%ADD11C,2.000000*%
%TD*%
%TA.AperFunction,Conductor*%
%ADD12C,0.400000*%
%TD*%
%TA.AperFunction,Conductor*%
%ADD13C,0.800000*%
%TD*%
G04 APERTURE END LIST*
D10*
%TO.P,SW_3PDT1,9*%
%TO.N,Net-(SW_3PDT1-Pad3)*%
X144900000Y-83900000D03*
%TO.P,SW_3PDT1,8*%
%TO.N,Net-(JO1-Pin_1)*%
X144900000Y-79100000D03*
%TO.P,SW_3PDT1,7*%
%TO.N,Net-(OUT1-Pin_1)*%
X144900000Y-74300000D03*
%TO.P,SW_3PDT1,6*%
%TO.N,Net-(IN1-Pin_1)*%
X139600000Y-83900000D03*
%TO.P,SW_3PDT1,5*%
%TO.N,GND*%
X139600000Y-79100000D03*
%TO.P,SW_3PDT1,4*%
%TO.N,Net-(LED1-Pin_1)*%
X139600000Y-74300000D03*
%TO.P,SW_3PDT1,3*%
%TO.N,Net-(SW_3PDT1-Pad3)*%
X134300000Y-83900000D03*
%TO.P,SW_3PDT1,2*%
%TO.N,Net-(JI1-Pin_1)*%
X134300000Y-79100000D03*
%TO.P,SW_3PDT1,1*%
%TO.N,Net-(IN1-Pin_1)*%
X134300000Y-74300000D03*
%TD*%
D11*
%TO.P,OUT1,1,Pin_1*%
%TO.N,Net-(OUT1-Pin_1)*%
X143410000Y-68190000D03*
%TD*%
%TO.P,LED1,1,Pin_1*%
%TO.N,Net-(LED1-Pin_1)*%
X138330000Y-68190000D03*
%TD*%
%TO.P,JO1,1,Pin_1*%
%TO.N,Net-(JO1-Pin_1)*%
X145950000Y-68190000D03*
%TD*%
%TO.P,JI1,1,Pin_1*%
%TO.N,Net-(JI1-Pin_1)*%
X133250000Y-68190000D03*
%TD*%
%TO.P,IN1,1,Pin_1*%
%TO.N,Net-(IN1-Pin_1)*%
X135790000Y-68190000D03*
%TD*%
%TO.P,GND1,1,Pin_1*%
%TO.N,GND*%
X140870000Y-68190000D03*
%TD*%
D12*
%TO.N,Net-(IN1-Pin_1)*%
X135790000Y-72810000D02*
X134300000Y-74300000D01*
X134300000Y-74300000D02*
X137000000Y-77000000D01*
X137000000Y-77000000D02*
X137000000Y-81300000D01*
X135790000Y-68250000D02*
X135790000Y-72810000D01*
X137000000Y-81300000D02*
X139600000Y-83900000D01*
%TO.N,Net-(JI1-Pin_1)*%
X133250000Y-67700000D02*
X133250000Y-67650000D01*
%TO.N,Net-(JO1-Pin_1)*%
X145950000Y-68190000D02*
X142250000Y-71890000D01*
X142250000Y-71890000D02*
X142250000Y-76450000D01*
X142250000Y-76450000D02*
X144900000Y-79100000D01*
D13*
%TO.N,Net-(LED1-Pin_1)*%
X138340000Y-68190000D02*
X138350000Y-68200000D01*
X138330000Y-73030000D02*
X139600000Y-74300000D01*
X138330000Y-68190000D02*
X138330000Y-73030000D01*
%TD*%
%TA.AperFunction,Conductor*%
%TO.N,GND*%
G36*
X147792539Y-66450185D02*
G01*
X147838294Y-66502989D01*
X147849500Y-66554500D01*
X147849500Y-85805500D01*
X147829815Y-85872539D01*
X147777011Y-85918294D01*
X147725500Y-85929500D01*
X131474500Y-85929500D01*
X131407461Y-85909815D01*
X131361706Y-85857011D01*
X131350500Y-85805500D01*
X131350500Y-83772070D01*
X131799500Y-83772070D01*
X131799500Y-84027929D01*
X131839526Y-84280640D01*
X131918588Y-84523972D01*
X131918589Y-84523975D01*
X132034750Y-84751950D01*
X132185132Y-84958935D01*
X132185136Y-84958940D01*
X132366059Y-85139863D01*
X132366064Y-85139867D01*
X132546607Y-85271038D01*
X132573053Y-85290252D01*
X132722080Y-85366185D01*
X132801024Y-85406410D01*
X132801027Y-85406411D01*
X132922693Y-85445942D01*
X133044361Y-85485474D01*
X133297070Y-85525500D01*
X133297071Y-85525500D01*
X135302929Y-85525500D01*
X135302930Y-85525500D01*
X135555639Y-85485474D01*
X135798975Y-85406410D01*
X136026947Y-85290252D01*
X136233942Y-85139862D01*
X136414862Y-84958942D01*
X136565252Y-84751947D01*
X136681410Y-84523975D01*
X136760474Y-84280639D01*
X136800500Y-84027930D01*
X136800500Y-83772070D01*
X136760474Y-83519361D01*
X136681410Y-83276025D01*
X136681410Y-83276024D01*
X136641185Y-83197080D01*
X136565252Y-83048053D01*
X136449648Y-82888937D01*
X136414867Y-82841064D01*
X136414863Y-82841059D01*
X136233940Y-82660136D01*
X136233935Y-82660132D01*
X136026950Y-82509750D01*
X136026949Y-82509749D01*
X136026947Y-82509748D01*
X135953910Y-82472533D01*
X135798975Y-82393589D01*
X135798972Y-82393588D01*
X135555640Y-82314526D01*
X135429284Y-82294513D01*
X135302930Y-82274500D01*
X133297070Y-82274500D01*
X133212833Y-82287842D01*
X133044359Y-82314526D01*
X132801027Y-82393588D01*
X132801024Y-82393589D01*
X132573049Y-82509750D01*
X132366064Y-82660132D01*
X132366059Y-82660136D01*
X132185136Y-82841059D01*
X132185132Y-82841064D01*
X132034750Y-83048049D01*
X131918589Y-83276024D01*
X131918588Y-83276027D01*
X131839526Y-83519359D01*
X131799500Y-83772070D01*
X131350500Y-83772070D01*
X131350500Y-68071902D01*
X131749500Y-68071902D01*
X131749500Y-68308097D01*
X131786446Y-68541368D01*
X131859433Y-68765996D01*
X131966657Y-68976433D01*
X132105483Y-69167510D01*
X132272490Y-69334517D01*
X132463567Y-69473343D01*
X132549500Y-69517128D01*
X132674003Y-69580566D01*
X132674005Y-69580566D01*
X132674008Y-69580568D01*
X132712624Y-69593115D01*
X132898631Y-69653553D01*
X133131903Y-69690500D01*
X133131908Y-69690500D01*
X133368097Y-69690500D01*
X133601368Y-69653553D01*
X133630784Y-69643995D01*
X133825992Y-69580568D01*
X134036433Y-69473343D01*
X134227510Y-69334517D01*
X134394517Y-69167510D01*
X134419682Y-69132872D01*
X134475011Y-69090207D01*
X134544625Y-69084228D01*
X134606420Y-69116833D01*
X134620315Y-69132870D01*
X134645483Y-69167510D01*
X134812490Y-69334517D01*
X135003567Y-69473343D01*
X135021794Y-69482630D01*
X135072590Y-69530603D01*
X135089500Y-69593115D01*
X135089500Y-72468481D01*
X135080855Y-72497921D01*
X135074332Y-72527908D01*
X135070577Y-72532923D01*
X135069815Y-72535520D01*
X135053181Y-72556162D01*
X134971162Y-72638181D01*
X134909839Y-72671666D01*
X134883481Y-72674500D01*
X133297070Y-72674500D01*
X133212833Y-72687842D01*
X133044359Y-72714526D01*
X132801027Y-72793588D01*
X132801024Y-72793589D01*
X132573049Y-72909750D01*
X132366064Y-73060132D01*
X132366059Y-73060136D01*
X132185136Y-73241059D01*
X132185132Y-73241064D01*
X132034750Y-73448049D01*
X131918589Y-73676024D01*
X131918588Y-73676027D01*
X131839526Y-73919359D01*
X131799500Y-74172070D01*
X131799500Y-74427929D01*
X131839526Y-74680640D01*
X131918588Y-74923972D01*
X131918589Y-74923975D01*
X132034750Y-75151950D01*
X132185132Y-75358935D01*
X132185136Y-75358940D01*
X132366059Y-75539863D01*
X132366064Y-75539867D01*
X132515067Y-75648123D01*
X132573053Y-75690252D01*
X132722080Y-75766185D01*
X132801024Y-75806410D01*
X132801027Y-75806411D01*
X132922693Y-75845942D01*
X133044361Y-75885474D01*
X133297070Y-75925500D01*
X134883481Y-75925500D01*
X134950520Y-75945185D01*
X134971162Y-75961819D01*
X136263181Y-77253838D01*
X136296666Y-77315161D01*
X136299500Y-77341519D01*
X136299500Y-77664404D01*
X136279815Y-77731443D01*
X136227011Y-77777198D01*
X136157853Y-77787142D01*
X136102616Y-77764723D01*
X136026949Y-77709749D01*
X135798975Y-77593589D01*
X135798972Y-77593588D01*
X135555640Y-77514526D01*
X135429284Y-77494513D01*
X135302930Y-77474500D01*
X133297070Y-77474500D01*
X133212833Y-77487842D01*
X133044359Y-77514526D01*
X132801027Y-77593588D01*
X132801024Y-77593589D01*
X132573049Y-77709750D01*
X132366064Y-77860132D01*
X132366059Y-77860136D01*
X132185136Y-78041059D01*
X132185132Y-78041064D01*
X132034750Y-78248049D01*
X131918589Y-78476024D01*
X131918588Y-78476027D01*
X131839526Y-78719359D01*
X131799500Y-78972070D01*
X131799500Y-79227929D01*
X131839526Y-79480640D01*
X131918588Y-79723972D01*
X131918589Y-79723975D01*
X132034750Y-79951950D01*
X132185132Y-80158935D01*
X132185136Y-80158940D01*
X132366059Y-80339863D01*
X132366064Y-80339867D01*
X132465068Y-80411797D01*
X132573053Y-80490252D01*
X132722080Y-80566185D01*
X132801024Y-80606410D01*
X132801027Y-80606411D01*
X132922693Y-80645942D01*
X133044361Y-80685474D01*
X133297070Y-80725500D01*
X133297071Y-80725500D01*
X135302929Y-80725500D01*
X135302930Y-80725500D01*
X135555639Y-80685474D01*
X135798975Y-80606410D01*
X136026947Y-80490252D01*
X136065861Y-80461978D01*
X136102615Y-80435277D01*
X136168421Y-80411797D01*
X136236475Y-80427623D01*
X136285170Y-80477729D01*
X136299500Y-80535595D01*
X136299500Y-81231006D01*
X136299500Y-81368994D01*
X136299500Y-81368996D01*
X136299499Y-81368996D01*
X136326418Y-81504322D01*
X136326421Y-81504332D01*
X136379222Y-81631807D01*
X136455887Y-81746545D01*
X136455888Y-81746546D01*
X137437714Y-82728371D01*
X137471199Y-82789694D01*
X137466215Y-82859385D01*
X137450351Y-82888937D01*
X137334750Y-83048049D01*
X137218589Y-83276024D01*
X137218588Y-83276027D01*
X137139526Y-83519359D01*
X137099500Y-83772070D01*
X137099500Y-84027929D01*
X137139526Y-84280640D01*
X137218588Y-84523972D01*
X137218589Y-84523975D01*
X137334750Y-84751950D01*
X137485132Y-84958935D01*
X137485136Y-84958940D01*
X137666059Y-85139863D01*
X137666064Y-85139867D01*
X137846607Y-85271038D01*
X137873053Y-85290252D01*
X138022080Y-85366185D01*
X138101024Y-85406410D01*
X138101027Y-85406411D01*
X138222693Y-85445942D01*
X138344361Y-85485474D01*
X138597070Y-85525500D01*
X138597071Y-85525500D01*
X140602929Y-85525500D01*
X140602930Y-85525500D01*
X140855639Y-85485474D01*
X141098975Y-85406410D01*
X141326947Y-85290252D01*
X141533942Y-85139862D01*
X141714862Y-84958942D01*
X141865252Y-84751947D01*
X141981410Y-84523975D01*
X142060474Y-84280639D01*
X142100500Y-84027930D01*
X142100500Y-83772070D01*
X142399500Y-83772070D01*
X142399500Y-84027929D01*
X142439526Y-84280640D01*
X142518588Y-84523972D01*
X142518589Y-84523975D01*
X142634750Y-84751950D01*
X142785132Y-84958935D01*
X142785136Y-84958940D01*
X142966059Y-85139863D01*
X142966064Y-85139867D01*
X143146607Y-85271038D01*
X143173053Y-85290252D01*
X143322080Y-85366185D01*
X143401024Y-85406410D01*
X143401027Y-85406411D01*
X143522693Y-85445942D01*
X143644361Y-85485474D01*
X143897070Y-85525500D01*
X143897071Y-85525500D01*
X145902929Y-85525500D01*
X145902930Y-85525500D01*
X146155639Y-85485474D01*
X146398975Y-85406410D01*
X146626947Y-85290252D01*
X146833942Y-85139862D01*
X147014862Y-84958942D01*
X147165252Y-84751947D01*
X147281410Y-84523975D01*
X147360474Y-84280639D01*
X147400500Y-84027930D01*
X147400500Y-83772070D01*
X147360474Y-83519361D01*
X147281410Y-83276025D01*
X147281410Y-83276024D01*
X147241185Y-83197080D01*
X147165252Y-83048053D01*
X147049648Y-82888937D01*
X147014867Y-82841064D01*
X147014863Y-82841059D01*
X146833940Y-82660136D01*
X146833935Y-82660132D01*
X146626950Y-82509750D01*
X146626949Y-82509749D01*
X146626947Y-82509748D01*
X146553910Y-82472533D01*
X146398975Y-82393589D01*
X146398972Y-82393588D01*
X146155640Y-82314526D01*
X146029284Y-82294513D01*
X145902930Y-82274500D01*
X143897070Y-82274500D01*
X143812833Y-82287842D01*
X143644359Y-82314526D01*
X143401027Y-82393588D01*
X143401024Y-82393589D01*
X143173049Y-82509750D01*
X142966064Y-82660132D01*
X142966059Y-82660136D01*
X142785136Y-82841059D01*
X142785132Y-82841064D01*
X142634750Y-83048049D01*
X142518589Y-83276024D01*
X142518588Y-83276027D01*
X142439526Y-83519359D01*
X142399500Y-83772070D01*
X142100500Y-83772070D01*
X142060474Y-83519361D01*
X141981410Y-83276025D01*
X141981410Y-83276024D01*
X141941185Y-83197080D01*
X141865252Y-83048053D01*
X141749648Y-82888937D01*
X141714867Y-82841064D01*
X141714863Y-82841059D01*
X141533940Y-82660136D01*
X141533935Y-82660132D01*
X141326950Y-82509750D01*
X141326949Y-82509749D01*
X141326947Y-82509748D01*
X141253910Y-82472533D01*
X141098975Y-82393589D01*
X141098972Y-82393588D01*
X140855640Y-82314526D01*
X140729284Y-82294513D01*
X140602930Y-82274500D01*
X140602929Y-82274500D01*
X139016519Y-82274500D01*
X138949480Y-82254815D01*
X138928838Y-82238181D01*
X137736819Y-81046162D01*
X137703334Y-80984839D01*
X137700500Y-80958481D01*
X137700500Y-76931006D01*
X137693644Y-76896543D01*
X137693644Y-76896540D01*
X137673581Y-76795679D01*
X137673580Y-76795672D01*
X137667837Y-76781807D01*
X137620777Y-76668192D01*
X137544112Y-76553454D01*
X137544111Y-76553453D01*
X136462285Y-75471628D01*
X136428800Y-75410305D01*
X136433784Y-75340613D01*
X136449643Y-75311068D01*
X136565252Y-75151947D01*
X136681410Y-74923975D01*
X136760474Y-74680639D01*
X136800500Y-74427930D01*
X136800500Y-74172070D01*
X136760474Y-73919361D01*
X136681410Y-73676025D01*
X136681410Y-73676024D01*
X136641185Y-73597080D01*
X136565252Y-73448053D01*
X136471312Y-73318755D01*
X136426894Y-73257618D01*
X136424283Y-73250301D01*
X136418756Y-73244843D01*
X136412708Y-73217860D01*
X136403414Y-73191812D01*
X136404787Y-73182521D01*
X136403475Y-73176665D01*
X136409438Y-73151067D01*
X136410760Y-73142131D01*
X136411648Y-73139701D01*
X136463580Y-73014329D01*
X136468934Y-72987409D01*
X136490500Y-72878993D01*
X136490500Y-69593115D01*
X136510185Y-69526076D01*
X136558205Y-69482630D01*
X136576433Y-69473343D01*
X136767510Y-69334517D01*
X136934517Y-69167510D01*
X136959682Y-69132872D01*
X137015011Y-69090207D01*
X137084625Y-69084228D01*
X137146420Y-69116833D01*
X137160315Y-69132870D01*
X137185483Y-69167510D01*
X137352490Y-69334517D01*
X137378385Y-69353331D01*
X137421050Y-69408658D01*
X137429500Y-69453648D01*
X137429500Y-72941308D01*
X137429500Y-73118692D01*
X137434162Y-73142131D01*
X137449985Y-73221681D01*
X137443756Y-73291272D01*
X137428686Y-73318755D01*
X137334748Y-73448052D01*
X137334747Y-73448054D01*
X137218589Y-73676024D01*
X137218588Y-73676027D01*
X137139526Y-73919359D01*
X137099500Y-74172070D01*
X137099500Y-74427929D01*
X137139526Y-74680640D01*
X137218588Y-74923972D01*
X137218589Y-74923975D01*
X137334750Y-75151950D01*
X137485132Y-75358935D01*
X137485136Y-75358940D01*
X137666059Y-75539863D01*
X137666064Y-75539867D01*
X137815067Y-75648123D01*
X137873053Y-75690252D01*
X138022080Y-75766185D01*
X138101024Y-75806410D01*
X138101027Y-75806411D01*
X138222693Y-75845942D01*
X138344361Y-75885474D01*
X138597070Y-75925500D01*
X138597071Y-75925500D01*
X140602929Y-75925500D01*
X140602930Y-75925500D01*
X140855639Y-75885474D01*
X141098975Y-75806410D01*
X141326947Y-75690252D01*
X141352614Y-75671603D01*
X141418419Y-75648123D01*
X141486473Y-75663947D01*
X141535169Y-75714052D01*
X141549500Y-75771921D01*
X141549500Y-76381006D01*
X141549500Y-76518994D01*
X141549500Y-76518996D01*
X141549499Y-76518996D01*
X141576418Y-76654322D01*
X141576421Y-76654332D01*
X141629222Y-76781807D01*
X141705886Y-76896543D01*
X141705888Y-76896546D01*
X142737714Y-77928371D01*
X142771199Y-77989694D01*
X142766215Y-78059386D01*
X142750351Y-78088937D01*
X142634750Y-78248049D01*
X142518589Y-78476024D01*
X142518588Y-78476027D01*
X142439526Y-78719359D01*
X142399500Y-78972070D01*
X142399500Y-79227929D01*
X142439526Y-79480640D01*
X142518588Y-79723972D01*
X142518589Y-79723975D01*
X142634750Y-79951950D01*
X142785132Y-80158935D01*
X142785136Y-80158940D01*
X142966059Y-80339863D01*
X142966064Y-80339867D01*
X143065068Y-80411797D01*
X143173053Y-80490252D01*
X143322080Y-80566185D01*
X143401024Y-80606410D01*
X143401027Y-80606411D01*
X143522693Y-80645942D01*
X143644361Y-80685474D01*
X143897070Y-80725500D01*
X143897071Y-80725500D01*
X145902929Y-80725500D01*
X145902930Y-80725500D01*
X146155639Y-80685474D01*
X146398975Y-80606410D01*
X146626947Y-80490252D01*
X146833942Y-80339862D01*
X147014862Y-80158942D01*
X147165252Y-79951947D01*
X147281410Y-79723975D01*
X147360474Y-79480639D01*
X147400500Y-79227930D01*
X147400500Y-78972070D01*
X147360474Y-78719361D01*
X147281410Y-78476025D01*
X147281410Y-78476024D01*
X147241185Y-78397080D01*
X147165252Y-78248053D01*
X147049648Y-78088937D01*
X147014867Y-78041064D01*
X147014863Y-78041059D01*
X146833940Y-77860136D01*
X146833935Y-77860132D01*
X146626950Y-77709750D01*
X146626949Y-77709749D01*
X146626947Y-77709748D01*
X146537955Y-77664404D01*
X146398975Y-77593589D01*
X146398972Y-77593588D01*
X146155640Y-77514526D01*
X146029284Y-77494513D01*
X145902930Y-77474500D01*
X145902929Y-77474500D01*
X144316519Y-77474500D01*
X144249480Y-77454815D01*
X144228838Y-77438181D01*
X142986819Y-76196162D01*
X142953334Y-76134839D01*
X142950500Y-76108481D01*
X142950500Y-75771921D01*
X142970185Y-75704882D01*
X143022989Y-75659127D01*
X143092147Y-75649183D01*
X143147384Y-75671603D01*
X143162438Y-75682540D01*
X143173051Y-75690251D01*
X143401024Y-75806410D01*
X143401027Y-75806411D01*
X143522693Y-75845942D01*
X143644361Y-75885474D01*
X143897070Y-75925500D01*
X143897071Y-75925500D01*
X145902929Y-75925500D01*
X145902930Y-75925500D01*
X146155639Y-75885474D01*
X146398975Y-75806410D01*
X146626947Y-75690252D01*
X146833942Y-75539862D01*
X147014862Y-75358942D01*
X147165252Y-75151947D01*
X147281410Y-74923975D01*
X147360474Y-74680639D01*
X147400500Y-74427930D01*
X147400500Y-74172070D01*
X147360474Y-73919361D01*
X147281410Y-73676025D01*
X147281410Y-73676024D01*
X147241185Y-73597080D01*
X147165252Y-73448053D01*
X147071312Y-73318755D01*
X147014867Y-73241064D01*
X147014863Y-73241059D01*
X146833940Y-73060136D01*
X146833935Y-73060132D01*
X146626950Y-72909750D01*
X146626949Y-72909749D01*
X146626947Y-72909748D01*
X146553910Y-72872533D01*
X146398975Y-72793589D01*
X146398972Y-72793588D01*
X146155640Y-72714526D01*
X146029284Y-72694513D01*
X145902930Y-72674500D01*
X143897070Y-72674500D01*
X143812833Y-72687842D01*
X143644359Y-72714526D01*
X143401027Y-72793588D01*
X143401024Y-72793589D01*
X143173049Y-72909750D01*
X143147385Y-72928396D01*
X143081578Y-72951876D01*
X143013525Y-72936050D01*
X142964830Y-72885944D01*
X142950500Y-72828078D01*
X142950500Y-72231518D01*
X142970185Y-72164479D01*
X142986814Y-72143842D01*
X145453177Y-69677478D01*
X145514498Y-69643995D01*
X145579175Y-69647230D01*
X145598632Y-69653553D01*
X145686110Y-69667408D01*
X145831903Y-69690500D01*
X145831908Y-69690500D01*
X146068097Y-69690500D01*
X146301368Y-69653553D01*
X146330784Y-69643995D01*
X146525992Y-69580568D01*
X146736433Y-69473343D01*
X146927510Y-69334517D01*
X147094517Y-69167510D01*
X147233343Y-68976433D01*
X147340568Y-68765992D01*
X147413553Y-68541368D01*
X147450500Y-68308097D01*
X147450500Y-68071902D01*
X147413553Y-67838631D01*
X147340566Y-67614003D01*
X147233342Y-67403566D01*
X147219999Y-67385201D01*
X147094517Y-67212490D01*
X146927510Y-67045483D01*
X146736433Y-66906657D01*
X146525996Y-66799433D01*
X146301368Y-66726446D01*
X146068097Y-66689500D01*
X146068092Y-66689500D01*
X145831908Y-66689500D01*
X145831903Y-66689500D01*
X145598631Y-66726446D01*
X145374003Y-66799433D01*
X145163566Y-66906657D01*
X145054550Y-66985862D01*
X144972490Y-67045483D01*
X144972488Y-67045485D01*
X144972487Y-67045485D01*
X144805484Y-67212488D01*
X144780318Y-67247127D01*
X144724987Y-67289792D01*
X144655374Y-67295771D01*
X144593579Y-67263165D01*
X144579682Y-67247127D01*
X144554517Y-67212490D01*
X144387510Y-67045483D01*
X144196433Y-66906657D01*
X143985996Y-66799433D01*
X143761368Y-66726446D01*
X143528097Y-66689500D01*
X143528092Y-66689500D01*
X143291908Y-66689500D01*
X143291903Y-66689500D01*
X143058631Y-66726446D01*
X142834003Y-66799433D01*
X142623566Y-66906657D01*
X142514550Y-66985862D01*
X142432490Y-67045483D01*
X142432488Y-67045485D01*
X142432487Y-67045485D01*
X142265485Y-67212487D01*
X142265485Y-67212488D01*
X142265483Y-67212490D01*
X142209320Y-67289792D01*
X142126657Y-67403566D01*
X142019433Y-67614003D01*
X141946446Y-67838631D01*
X141909500Y-68071902D01*
X141909500Y-68308097D01*
X141946446Y-68541368D01*
X142019433Y-68765996D01*
X142126657Y-68976433D01*
X142265483Y-69167510D01*
X142432490Y-69334517D01*
X142623567Y-69473343D01*
X142709500Y-69517128D01*
X142834003Y-69580566D01*
X142834005Y-69580566D01*
X142834008Y-69580568D01*
X142872624Y-69593115D01*
X143058631Y-69653553D01*
X143195650Y-69675255D01*
X143258785Y-69705184D01*
X143295716Y-69764496D01*
X143294718Y-69834358D01*
X143263933Y-69885409D01*
X141705888Y-71443453D01*
X141705887Y-71443454D01*
X141629222Y-71558192D01*
X141576421Y-71685667D01*
X141576418Y-71685677D01*
X141549500Y-71821004D01*
X141549500Y-72828078D01*
X141529815Y-72895117D01*
X141477011Y-72940872D01*
X141407853Y-72950816D01*
X141352615Y-72928396D01*
X141326950Y-72909750D01*
X141326949Y-72909749D01*
X141326947Y-72909748D01*
X141253910Y-72872533D01*
X141098975Y-72793589D01*
X141098972Y-72793588D01*
X140855640Y-72714526D01*
X140729284Y-72694513D01*
X140602930Y-72674500D01*
X140602929Y-72674500D01*
X139354500Y-72674500D01*
X139287461Y-72654815D01*
X139241706Y-72602011D01*
X139230500Y-72550500D01*
X139230500Y-69453648D01*
X139250185Y-69386609D01*
X139281612Y-69353332D01*
X139307510Y-69334517D01*
X139474517Y-69167510D01*
X139613343Y-68976433D01*
X139720568Y-68765992D01*
X139793553Y-68541368D01*
X139830500Y-68308097D01*
X139830500Y-68071902D01*
X139793553Y-67838631D01*
X139720566Y-67614003D01*
X139613342Y-67403566D01*
X139599999Y-67385201D01*
X139474517Y-67212490D01*
X139307510Y-67045483D01*
X139116433Y-66906657D01*
X138905996Y-66799433D01*
X138681368Y-66726446D01*
X138448097Y-66689500D01*
X138448092Y-66689500D01*
X138211908Y-66689500D01*
X138211903Y-66689500D01*
X137978631Y-66726446D01*
X137754003Y-66799433D01*
X137543566Y-66906657D01*
X137434550Y-66985862D01*
X137352490Y-67045483D01*
X137352488Y-67045485D01*
X137352487Y-67045485D01*
X137185484Y-67212488D01*
X137160318Y-67247127D01*
X137104987Y-67289792D01*
X137035374Y-67295771D01*
X136973579Y-67263165D01*
X136959682Y-67247127D01*
X136934517Y-67212490D01*
X136767510Y-67045483D01*
X136576433Y-66906657D01*
X136365996Y-66799433D01*
X136141368Y-66726446D01*
X135908097Y-66689500D01*
X135908092Y-66689500D01*
X135671908Y-66689500D01*
X135671903Y-66689500D01*
X135438631Y-66726446D01*
X135214003Y-66799433D01*
X135003566Y-66906657D01*
X134894550Y-66985862D01*
X134812490Y-67045483D01*
X134812488Y-67045485D01*
X134812487Y-67045485D01*
X134645484Y-67212488D01*
X134620318Y-67247127D01*
X134564987Y-67289792D01*
X134495374Y-67295771D01*
X134433579Y-67263165D01*
X134419682Y-67247127D01*
X134394517Y-67212490D01*
X134227510Y-67045483D01*
X134036433Y-66906657D01*
X133825996Y-66799433D01*
X133601368Y-66726446D01*
X133368097Y-66689500D01*
X133368092Y-66689500D01*
X133131908Y-66689500D01*
X133131903Y-66689500D01*
X132898631Y-66726446D01*
X132674003Y-66799433D01*
X132463566Y-66906657D01*
X132354550Y-66985862D01*
X132272490Y-67045483D01*
X132272488Y-67045485D01*
X132272487Y-67045485D01*
X132105485Y-67212487D01*
X132105485Y-67212488D01*
X132105483Y-67212490D01*
X132049320Y-67289792D01*
X131966657Y-67403566D01*
X131859433Y-67614003D01*
X131786446Y-67838631D01*
X131749500Y-68071902D01*
X131350500Y-68071902D01*
X131350500Y-66554500D01*
X131370185Y-66487461D01*
X131422989Y-66441706D01*
X131474500Y-66430500D01*
X147725500Y-66430500D01*
X147792539Y-66450185D01*
G37*
%TD.AperFunction*%
%TD*%
M02*
