%TF.GenerationSoftware,KiCad,Pcbnew,9.0.0*%
%TF.CreationDate,2025-02-28T17:36:00-08:00*%
%TF.ProjectId,3pdt board,33706474-2062-46f6-9172-642e6b696361,rev?*%
%TF.SameCoordinates,Original*%
%TF.FileFunction,Legend,Bot*%
%TF.FilePolarity,Positive*%
%FSLAX46Y46*%
G04 Gerber Fmt 4.6, Leading zero omitted, Abs format (unit mm)*
G04 Created by KiCad (PCBNEW 9.0.0) date 2025-02-28 17:36:00*
%MOMM*%
%LPD*%
G01*
G04 APERTURE LIST*
%ADD10C,0.125000*%
%ADD11C,0.100000*%
G04 APERTURE END LIST*
D10*
X145024761Y-81494642D02*
X145024761Y-81875595D01*
X145291428Y-81075595D02*
X145024761Y-81494642D01*
X145024761Y-81494642D02*
X144758095Y-81075595D01*
X144339047Y-81075595D02*
X144186666Y-81075595D01*
X144186666Y-81075595D02*
X144110476Y-81113690D01*
X144110476Y-81113690D02*
X144034285Y-81189880D01*
X144034285Y-81189880D02*
X143996190Y-81342261D01*
X143996190Y-81342261D02*
X143996190Y-81608928D01*
X143996190Y-81608928D02*
X144034285Y-81761309D01*
X144034285Y-81761309D02*
X144110476Y-81837500D01*
X144110476Y-81837500D02*
X144186666Y-81875595D01*
X144186666Y-81875595D02*
X144339047Y-81875595D01*
X144339047Y-81875595D02*
X144415238Y-81837500D01*
X144415238Y-81837500D02*
X144491428Y-81761309D01*
X144491428Y-81761309D02*
X144529524Y-81608928D01*
X144529524Y-81608928D02*
X144529524Y-81342261D01*
X144529524Y-81342261D02*
X144491428Y-81189880D01*
X144491428Y-81189880D02*
X144415238Y-81113690D01*
X144415238Y-81113690D02*
X144339047Y-81075595D01*
X143653333Y-81075595D02*
X143653333Y-81723214D01*
X143653333Y-81723214D02*
X143615238Y-81799404D01*
X143615238Y-81799404D02*
X143577143Y-81837500D01*
X143577143Y-81837500D02*
X143500952Y-81875595D01*
X143500952Y-81875595D02*
X143348571Y-81875595D01*
X143348571Y-81875595D02*
X143272381Y-81837500D01*
X143272381Y-81837500D02*
X143234286Y-81799404D01*
X143234286Y-81799404D02*
X143196190Y-81723214D01*
X143196190Y-81723214D02*
X143196190Y-81075595D01*
X142777143Y-81075595D02*
X142853334Y-81227976D01*
X142548572Y-81075595D02*
X142281905Y-81875595D01*
X142281905Y-81875595D02*
X142015239Y-81075595D01*
X141748572Y-81456547D02*
X141481906Y-81456547D01*
X141367620Y-81875595D02*
X141748572Y-81875595D01*
X141748572Y-81875595D02*
X141748572Y-81075595D01*
X141748572Y-81075595D02*
X141367620Y-81075595D01*
X140415238Y-81875595D02*
X140415238Y-81075595D01*
X140415238Y-81075595D02*
X140148572Y-81647023D01*
X140148572Y-81647023D02*
X139881905Y-81075595D01*
X139881905Y-81075595D02*
X139881905Y-81875595D01*
X139500952Y-81456547D02*
X139234286Y-81456547D01*
X139120000Y-81875595D02*
X139500952Y-81875595D01*
X139500952Y-81875595D02*
X139500952Y-81075595D01*
X139500952Y-81075595D02*
X139120000Y-81075595D01*
X138815238Y-81837500D02*
X138700952Y-81875595D01*
X138700952Y-81875595D02*
X138510476Y-81875595D01*
X138510476Y-81875595D02*
X138434285Y-81837500D01*
X138434285Y-81837500D02*
X138396190Y-81799404D01*
X138396190Y-81799404D02*
X138358095Y-81723214D01*
X138358095Y-81723214D02*
X138358095Y-81647023D01*
X138358095Y-81647023D02*
X138396190Y-81570833D01*
X138396190Y-81570833D02*
X138434285Y-81532738D01*
X138434285Y-81532738D02*
X138510476Y-81494642D01*
X138510476Y-81494642D02*
X138662857Y-81456547D01*
X138662857Y-81456547D02*
X138739047Y-81418452D01*
X138739047Y-81418452D02*
X138777142Y-81380357D01*
X138777142Y-81380357D02*
X138815238Y-81304166D01*
X138815238Y-81304166D02*
X138815238Y-81227976D01*
X138815238Y-81227976D02*
X138777142Y-81151785D01*
X138777142Y-81151785D02*
X138739047Y-81113690D01*
X138739047Y-81113690D02*
X138662857Y-81075595D01*
X138662857Y-81075595D02*
X138472380Y-81075595D01*
X138472380Y-81075595D02*
X138358095Y-81113690D01*
X138053333Y-81837500D02*
X137939047Y-81875595D01*
X137939047Y-81875595D02*
X137748571Y-81875595D01*
X137748571Y-81875595D02*
X137672380Y-81837500D01*
X137672380Y-81837500D02*
X137634285Y-81799404D01*
X137634285Y-81799404D02*
X137596190Y-81723214D01*
X137596190Y-81723214D02*
X137596190Y-81647023D01*
X137596190Y-81647023D02*
X137634285Y-81570833D01*
X137634285Y-81570833D02*
X137672380Y-81532738D01*
X137672380Y-81532738D02*
X137748571Y-81494642D01*
X137748571Y-81494642D02*
X137900952Y-81456547D01*
X137900952Y-81456547D02*
X137977142Y-81418452D01*
X137977142Y-81418452D02*
X138015237Y-81380357D01*
X138015237Y-81380357D02*
X138053333Y-81304166D01*
X138053333Y-81304166D02*
X138053333Y-81227976D01*
X138053333Y-81227976D02*
X138015237Y-81151785D01*
X138015237Y-81151785D02*
X137977142Y-81113690D01*
X137977142Y-81113690D02*
X137900952Y-81075595D01*
X137900952Y-81075595D02*
X137710475Y-81075595D01*
X137710475Y-81075595D02*
X137596190Y-81113690D01*
X137253332Y-81456547D02*
X136986666Y-81456547D01*
X136872380Y-81875595D02*
X137253332Y-81875595D01*
X137253332Y-81875595D02*
X137253332Y-81075595D01*
X137253332Y-81075595D02*
X136872380Y-81075595D01*
X136529522Y-81875595D02*
X136529522Y-81075595D01*
X136529522Y-81075595D02*
X136339046Y-81075595D01*
X136339046Y-81075595D02*
X136224760Y-81113690D01*
X136224760Y-81113690D02*
X136148570Y-81189880D01*
X136148570Y-81189880D02*
X136110475Y-81266071D01*
X136110475Y-81266071D02*
X136072379Y-81418452D01*
X136072379Y-81418452D02*
X136072379Y-81532738D01*
X136072379Y-81532738D02*
X136110475Y-81685119D01*
X136110475Y-81685119D02*
X136148570Y-81761309D01*
X136148570Y-81761309D02*
X136224760Y-81837500D01*
X136224760Y-81837500D02*
X136339046Y-81875595D01*
X136339046Y-81875595D02*
X136529522Y-81875595D01*
X135119998Y-81075595D02*
X135119998Y-81723214D01*
X135119998Y-81723214D02*
X135081903Y-81799404D01*
X135081903Y-81799404D02*
X135043808Y-81837500D01*
X135043808Y-81837500D02*
X134967617Y-81875595D01*
X134967617Y-81875595D02*
X134815236Y-81875595D01*
X134815236Y-81875595D02*
X134739046Y-81837500D01*
X134739046Y-81837500D02*
X134700951Y-81799404D01*
X134700951Y-81799404D02*
X134662855Y-81723214D01*
X134662855Y-81723214D02*
X134662855Y-81075595D01*
X134281903Y-81875595D02*
X134281903Y-81075595D01*
X134281903Y-81075595D02*
X133977141Y-81075595D01*
X133977141Y-81075595D02*
X133900951Y-81113690D01*
X133900951Y-81113690D02*
X133862856Y-81151785D01*
X133862856Y-81151785D02*
X133824760Y-81227976D01*
X133824760Y-81227976D02*
X133824760Y-81342261D01*
X133824760Y-81342261D02*
X133862856Y-81418452D01*
X133862856Y-81418452D02*
X133900951Y-81456547D01*
X133900951Y-81456547D02*
X133977141Y-81494642D01*
X133977141Y-81494642D02*
X134281903Y-81494642D01*
X146274760Y-77225595D02*
X146274760Y-76425595D01*
X145627142Y-76806547D02*
X145893808Y-76806547D01*
X145893808Y-77225595D02*
X145893808Y-76425595D01*
X145893808Y-76425595D02*
X145512856Y-76425595D01*
X144446189Y-76844642D02*
X144446189Y-77225595D01*
X144712856Y-76425595D02*
X144446189Y-76844642D01*
X144446189Y-76844642D02*
X144179523Y-76425595D01*
X143760475Y-76425595D02*
X143608094Y-76425595D01*
X143608094Y-76425595D02*
X143531904Y-76463690D01*
X143531904Y-76463690D02*
X143455713Y-76539880D01*
X143455713Y-76539880D02*
X143417618Y-76692261D01*
X143417618Y-76692261D02*
X143417618Y-76958928D01*
X143417618Y-76958928D02*
X143455713Y-77111309D01*
X143455713Y-77111309D02*
X143531904Y-77187500D01*
X143531904Y-77187500D02*
X143608094Y-77225595D01*
X143608094Y-77225595D02*
X143760475Y-77225595D01*
X143760475Y-77225595D02*
X143836666Y-77187500D01*
X143836666Y-77187500D02*
X143912856Y-77111309D01*
X143912856Y-77111309D02*
X143950952Y-76958928D01*
X143950952Y-76958928D02*
X143950952Y-76692261D01*
X143950952Y-76692261D02*
X143912856Y-76539880D01*
X143912856Y-76539880D02*
X143836666Y-76463690D01*
X143836666Y-76463690D02*
X143760475Y-76425595D01*
X143074761Y-76425595D02*
X143074761Y-77073214D01*
X143074761Y-77073214D02*
X143036666Y-77149404D01*
X143036666Y-77149404D02*
X142998571Y-77187500D01*
X142998571Y-77187500D02*
X142922380Y-77225595D01*
X142922380Y-77225595D02*
X142769999Y-77225595D01*
X142769999Y-77225595D02*
X142693809Y-77187500D01*
X142693809Y-77187500D02*
X142655714Y-77149404D01*
X142655714Y-77149404D02*
X142617618Y-77073214D01*
X142617618Y-77073214D02*
X142617618Y-76425595D01*
X141169999Y-77149404D02*
X141208095Y-77187500D01*
X141208095Y-77187500D02*
X141322380Y-77225595D01*
X141322380Y-77225595D02*
X141398571Y-77225595D01*
X141398571Y-77225595D02*
X141512857Y-77187500D01*
X141512857Y-77187500D02*
X141589047Y-77111309D01*
X141589047Y-77111309D02*
X141627142Y-77035119D01*
X141627142Y-77035119D02*
X141665238Y-76882738D01*
X141665238Y-76882738D02*
X141665238Y-76768452D01*
X141665238Y-76768452D02*
X141627142Y-76616071D01*
X141627142Y-76616071D02*
X141589047Y-76539880D01*
X141589047Y-76539880D02*
X141512857Y-76463690D01*
X141512857Y-76463690D02*
X141398571Y-76425595D01*
X141398571Y-76425595D02*
X141322380Y-76425595D01*
X141322380Y-76425595D02*
X141208095Y-76463690D01*
X141208095Y-76463690D02*
X141169999Y-76501785D01*
X140865238Y-76997023D02*
X140484285Y-76997023D01*
X140941428Y-77225595D02*
X140674761Y-76425595D01*
X140674761Y-76425595D02*
X140408095Y-77225595D01*
X140141428Y-77225595D02*
X140141428Y-76425595D01*
X140141428Y-76425595D02*
X139684285Y-77225595D01*
X139684285Y-77225595D02*
X139684285Y-76425595D01*
X138236666Y-77225595D02*
X138503333Y-76844642D01*
X138693809Y-77225595D02*
X138693809Y-76425595D01*
X138693809Y-76425595D02*
X138389047Y-76425595D01*
X138389047Y-76425595D02*
X138312857Y-76463690D01*
X138312857Y-76463690D02*
X138274762Y-76501785D01*
X138274762Y-76501785D02*
X138236666Y-76577976D01*
X138236666Y-76577976D02*
X138236666Y-76692261D01*
X138236666Y-76692261D02*
X138274762Y-76768452D01*
X138274762Y-76768452D02*
X138312857Y-76806547D01*
X138312857Y-76806547D02*
X138389047Y-76844642D01*
X138389047Y-76844642D02*
X138693809Y-76844642D01*
X137893809Y-76806547D02*
X137627143Y-76806547D01*
X137512857Y-77225595D02*
X137893809Y-77225595D01*
X137893809Y-77225595D02*
X137893809Y-76425595D01*
X137893809Y-76425595D02*
X137512857Y-76425595D01*
X137208095Y-76997023D02*
X136827142Y-76997023D01*
X137284285Y-77225595D02*
X137017618Y-76425595D01*
X137017618Y-76425595D02*
X136750952Y-77225595D01*
X136484285Y-77225595D02*
X136484285Y-76425595D01*
X136484285Y-76425595D02*
X136293809Y-76425595D01*
X136293809Y-76425595D02*
X136179523Y-76463690D01*
X136179523Y-76463690D02*
X136103333Y-76539880D01*
X136103333Y-76539880D02*
X136065238Y-76616071D01*
X136065238Y-76616071D02*
X136027142Y-76768452D01*
X136027142Y-76768452D02*
X136027142Y-76882738D01*
X136027142Y-76882738D02*
X136065238Y-77035119D01*
X136065238Y-77035119D02*
X136103333Y-77111309D01*
X136103333Y-77111309D02*
X136179523Y-77187500D01*
X136179523Y-77187500D02*
X136293809Y-77225595D01*
X136293809Y-77225595D02*
X136484285Y-77225595D01*
X135189047Y-76425595D02*
X134731904Y-76425595D01*
X134960476Y-77225595D02*
X134960476Y-76425595D01*
X134465237Y-77225595D02*
X134465237Y-76425595D01*
X134465237Y-76806547D02*
X134008094Y-76806547D01*
X134008094Y-77225595D02*
X134008094Y-76425595D01*
X133627142Y-77225595D02*
X133627142Y-76425595D01*
X133284286Y-77187500D02*
X133170000Y-77225595D01*
X133170000Y-77225595D02*
X132979524Y-77225595D01*
X132979524Y-77225595D02*
X132903333Y-77187500D01*
X132903333Y-77187500D02*
X132865238Y-77149404D01*
X132865238Y-77149404D02*
X132827143Y-77073214D01*
X132827143Y-77073214D02*
X132827143Y-76997023D01*
X132827143Y-76997023D02*
X132865238Y-76920833D01*
X132865238Y-76920833D02*
X132903333Y-76882738D01*
X132903333Y-76882738D02*
X132979524Y-76844642D01*
X132979524Y-76844642D02*
X133131905Y-76806547D01*
X133131905Y-76806547D02*
X133208095Y-76768452D01*
X133208095Y-76768452D02*
X133246190Y-76730357D01*
X133246190Y-76730357D02*
X133284286Y-76654166D01*
X133284286Y-76654166D02*
X133284286Y-76577976D01*
X133284286Y-76577976D02*
X133246190Y-76501785D01*
X133246190Y-76501785D02*
X133208095Y-76463690D01*
X133208095Y-76463690D02*
X133131905Y-76425595D01*
X133131905Y-76425595D02*
X132941428Y-76425595D01*
X132941428Y-76425595D02*
X132827143Y-76463690D01*
D11*
X131000000Y-70600000D02*
X148200000Y-70600000D01*
X144291353Y-69556895D02*
X144138972Y-69556895D01*
X144138972Y-69556895D02*
X144062782Y-69594990D01*
X144062782Y-69594990D02*
X143986591Y-69671180D01*
X143986591Y-69671180D02*
X143948496Y-69823561D01*
X143948496Y-69823561D02*
X143948496Y-70090228D01*
X143948496Y-70090228D02*
X143986591Y-70242609D01*
X143986591Y-70242609D02*
X144062782Y-70318800D01*
X144062782Y-70318800D02*
X144138972Y-70356895D01*
X144138972Y-70356895D02*
X144291353Y-70356895D01*
X144291353Y-70356895D02*
X144367544Y-70318800D01*
X144367544Y-70318800D02*
X144443734Y-70242609D01*
X144443734Y-70242609D02*
X144481830Y-70090228D01*
X144481830Y-70090228D02*
X144481830Y-69823561D01*
X144481830Y-69823561D02*
X144443734Y-69671180D01*
X144443734Y-69671180D02*
X144367544Y-69594990D01*
X144367544Y-69594990D02*
X144291353Y-69556895D01*
X143605639Y-69556895D02*
X143605639Y-70204514D01*
X143605639Y-70204514D02*
X143567544Y-70280704D01*
X143567544Y-70280704D02*
X143529449Y-70318800D01*
X143529449Y-70318800D02*
X143453258Y-70356895D01*
X143453258Y-70356895D02*
X143300877Y-70356895D01*
X143300877Y-70356895D02*
X143224687Y-70318800D01*
X143224687Y-70318800D02*
X143186592Y-70280704D01*
X143186592Y-70280704D02*
X143148496Y-70204514D01*
X143148496Y-70204514D02*
X143148496Y-69556895D01*
X142881830Y-69556895D02*
X142424687Y-69556895D01*
X142653259Y-70356895D02*
X142653259Y-69556895D01*
X133235163Y-69566895D02*
X133235163Y-70138323D01*
X133235163Y-70138323D02*
X133273258Y-70252609D01*
X133273258Y-70252609D02*
X133349449Y-70328800D01*
X133349449Y-70328800D02*
X133463734Y-70366895D01*
X133463734Y-70366895D02*
X133539925Y-70366895D01*
X132854210Y-70366895D02*
X132854210Y-69566895D01*
X141004687Y-69594990D02*
X141080877Y-69556895D01*
X141080877Y-69556895D02*
X141195163Y-69556895D01*
X141195163Y-69556895D02*
X141309449Y-69594990D01*
X141309449Y-69594990D02*
X141385639Y-69671180D01*
X141385639Y-69671180D02*
X141423734Y-69747371D01*
X141423734Y-69747371D02*
X141461830Y-69899752D01*
X141461830Y-69899752D02*
X141461830Y-70014038D01*
X141461830Y-70014038D02*
X141423734Y-70166419D01*
X141423734Y-70166419D02*
X141385639Y-70242609D01*
X141385639Y-70242609D02*
X141309449Y-70318800D01*
X141309449Y-70318800D02*
X141195163Y-70356895D01*
X141195163Y-70356895D02*
X141118972Y-70356895D01*
X141118972Y-70356895D02*
X141004687Y-70318800D01*
X141004687Y-70318800D02*
X140966591Y-70280704D01*
X140966591Y-70280704D02*
X140966591Y-70014038D01*
X140966591Y-70014038D02*
X141118972Y-70014038D01*
X140623734Y-70356895D02*
X140623734Y-69556895D01*
X140623734Y-69556895D02*
X140166591Y-70356895D01*
X140166591Y-70356895D02*
X140166591Y-69556895D01*
X136193734Y-70356895D02*
X136193734Y-69556895D01*
X135812782Y-70356895D02*
X135812782Y-69556895D01*
X135812782Y-69556895D02*
X135355639Y-70356895D01*
X135355639Y-70356895D02*
X135355639Y-69556895D01*
X146235163Y-69556895D02*
X146235163Y-70128323D01*
X146235163Y-70128323D02*
X146273258Y-70242609D01*
X146273258Y-70242609D02*
X146349449Y-70318800D01*
X146349449Y-70318800D02*
X146463734Y-70356895D01*
X146463734Y-70356895D02*
X146539925Y-70356895D01*
X145701829Y-69556895D02*
X145549448Y-69556895D01*
X145549448Y-69556895D02*
X145473258Y-69594990D01*
X145473258Y-69594990D02*
X145397067Y-69671180D01*
X145397067Y-69671180D02*
X145358972Y-69823561D01*
X145358972Y-69823561D02*
X145358972Y-70090228D01*
X145358972Y-70090228D02*
X145397067Y-70242609D01*
X145397067Y-70242609D02*
X145473258Y-70318800D01*
X145473258Y-70318800D02*
X145549448Y-70356895D01*
X145549448Y-70356895D02*
X145701829Y-70356895D01*
X145701829Y-70356895D02*
X145778020Y-70318800D01*
X145778020Y-70318800D02*
X145854210Y-70242609D01*
X145854210Y-70242609D02*
X145892306Y-70090228D01*
X145892306Y-70090228D02*
X145892306Y-69823561D01*
X145892306Y-69823561D02*
X145854210Y-69671180D01*
X145854210Y-69671180D02*
X145778020Y-69594990D01*
X145778020Y-69594990D02*
X145701829Y-69556895D01*
X138862782Y-70366895D02*
X139243734Y-70366895D01*
X139243734Y-70366895D02*
X139243734Y-69566895D01*
X138596115Y-69947847D02*
X138329449Y-69947847D01*
X138215163Y-70366895D02*
X138596115Y-70366895D01*
X138596115Y-70366895D02*
X138596115Y-69566895D01*
X138596115Y-69566895D02*
X138215163Y-69566895D01*
X137872305Y-70366895D02*
X137872305Y-69566895D01*
X137872305Y-69566895D02*
X137681829Y-69566895D01*
X137681829Y-69566895D02*
X137567543Y-69604990D01*
X137567543Y-69604990D02*
X137491353Y-69681180D01*
X137491353Y-69681180D02*
X137453258Y-69757371D01*
X137453258Y-69757371D02*
X137415162Y-69909752D01*
X137415162Y-69909752D02*
X137415162Y-70024038D01*
X137415162Y-70024038D02*
X137453258Y-70176419D01*
X137453258Y-70176419D02*
X137491353Y-70252609D01*
X137491353Y-70252609D02*
X137567543Y-70328800D01*
X137567543Y-70328800D02*
X137681829Y-70366895D01*
X137681829Y-70366895D02*
X137872305Y-70366895D01*
M02*
